<svg xmlns="http://www.w3.org/2000/svg" xmlns:xlink="http://www.w3.org/1999/xlink" width="500" zoomAndPan="magnify" viewBox="0 0 375 374.999991" height="500" preserveAspectRatio="xMidYMid meet" version="1.0"><defs><g/><clipPath id="c2d7950418"><path d="M 7.433594 94.152344 L 363.304688 94.152344 L 363.304688 262.863281 L 7.433594 262.863281 Z M 7.433594 94.152344 " clip-rule="nonzero"/></clipPath><clipPath id="1e0eb1631a"><path d="M 209.410156 94.152344 C 213.3125 94.152344 217.234375 94.152344 221.128906 94.152344 C 252.175781 96.972656 271.578125 106.351562 280.417969 121.699219 C 332.179688 119.652344 367.96875 148.675781 346.875 177.15625 C 354.503906 183.140625 360.863281 189.835938 363.164062 198.824219 C 363.164062 201.398438 363.164062 203.964844 363.164062 206.539062 C 356.316406 229.410156 326.847656 244.863281 278.472656 240.703125 C 266.027344 252.445312 243.878906 264.203125 209.414062 262.738281 C 191.601562 261.96875 179.210938 257.503906 168.359375 252.078125 C 156.929688 256.589844 144.554688 260.125 126.671875 260.164062 C 85.296875 260.234375 57.621094 242.859375 56.949219 219.03125 C 30.351562 213.457031 12.335938 203.050781 7.433594 185.246094 C 7.433594 182.671875 7.433594 180.089844 7.433594 177.527344 C 12.847656 159.882812 29.882812 148.800781 58.246094 144.101562 C 56.539062 114.339844 113.277344 95.738281 159.882812 108.851562 C 170.980469 102.367188 186.683594 95.296875 209.410156 94.152344 Z M 209.410156 94.152344 " clip-rule="nonzero"/></clipPath><clipPath id="7eea5f5a91"><path d="M 186.585938 208.234375 L 190.988281 208.234375 L 190.988281 212.640625 L 186.585938 212.640625 Z M 186.585938 208.234375 " clip-rule="nonzero"/></clipPath><clipPath id="b4ca48209d"><path d="M 188.785156 208.234375 C 187.570312 208.234375 186.585938 209.222656 186.585938 210.4375 C 186.585938 211.652344 187.570312 212.640625 188.785156 212.640625 C 190.003906 212.640625 190.988281 211.652344 190.988281 210.4375 C 190.988281 209.222656 190.003906 208.234375 188.785156 208.234375 Z M 188.785156 208.234375 " clip-rule="nonzero"/></clipPath></defs><rect x="-37.5" width="450" fill="#ffffff" y="-37.499999" height="449.999989" fill-opacity="1"/><rect x="-37.5" width="450" fill="#ffffff" y="-37.499999" height="449.999989" fill-opacity="1"/><g clip-path="url(#c2d7950418)"><g clip-path="url(#1e0eb1631a)"><path fill="#ffa69e" d="M 7.433594 94.152344 L 363.304688 94.152344 L 363.304688 262.863281 L 7.433594 262.863281 Z M 7.433594 94.152344 " fill-opacity="1" fill-rule="nonzero"/></g></g><g fill="#fdf0d5" fill-opacity="1"><g transform="translate(48.734246, 189.233191)"><g><path d="M 3.75 -21.40625 L 3.75 -29.375 L 11.140625 -29.375 L 11.140625 -21.40625 L 15.640625 -21.40625 L 15.640625 -15.765625 L 11.140625 -15.765625 L 11.140625 -8.96875 C 11.140625 -6.988281 11.695312 -6 12.8125 -6 C 13.082031 -6 13.367188 -6.054688 13.671875 -6.171875 C 13.984375 -6.285156 14.222656 -6.398438 14.390625 -6.515625 L 14.640625 -6.671875 L 16.484375 -0.703125 C 14.890625 0.179688 13.082031 0.625 11.0625 0.625 C 9.664062 0.625 8.46875 0.382812 7.46875 -0.09375 C 6.46875 -0.582031 5.707031 -1.238281 5.1875 -2.0625 C 4.675781 -2.882812 4.304688 -3.742188 4.078125 -4.640625 C 3.859375 -5.546875 3.75 -6.515625 3.75 -7.546875 L 3.75 -15.765625 L 0.671875 -15.765625 L 0.671875 -21.40625 Z M 3.75 -21.40625 "/></g></g></g><g fill="#fdf0d5" fill-opacity="1"><g transform="translate(61.290826, 189.233191)"><g><path d="M 2.5 0 L 2.5 -21.40625 L 9.890625 -21.40625 L 9.890625 -18.3125 L 9.96875 -18.3125 C 10.019531 -18.425781 10.109375 -18.566406 10.234375 -18.734375 C 10.359375 -18.898438 10.628906 -19.191406 11.046875 -19.609375 C 11.472656 -20.023438 11.921875 -20.398438 12.390625 -20.734375 C 12.859375 -21.066406 13.46875 -21.363281 14.21875 -21.625 C 14.976562 -21.894531 15.742188 -22.03125 16.515625 -22.03125 C 17.328125 -22.03125 18.117188 -21.914062 18.890625 -21.6875 C 19.671875 -21.46875 20.242188 -21.25 20.609375 -21.03125 L 21.1875 -20.6875 L 18.109375 -14.4375 C 17.191406 -15.21875 15.910156 -15.609375 14.265625 -15.609375 C 13.378906 -15.609375 12.613281 -15.410156 11.96875 -15.015625 C 11.332031 -14.628906 10.878906 -14.15625 10.609375 -13.59375 C 10.347656 -13.039062 10.160156 -12.566406 10.046875 -12.171875 C 9.941406 -11.785156 9.890625 -11.484375 9.890625 -11.265625 L 9.890625 0 Z M 2.5 0 "/></g></g></g><g fill="#fdf0d5" fill-opacity="1"><g transform="translate(78.144434, 189.233191)"><g><path d="M 3.953125 -2.640625 C 1.953125 -4.828125 0.953125 -7.503906 0.953125 -10.671875 C 0.953125 -13.847656 1.953125 -16.535156 3.953125 -18.734375 C 5.960938 -20.929688 8.507812 -22.03125 11.59375 -22.03125 C 14.4375 -22.03125 16.773438 -21.140625 18.609375 -19.359375 L 18.609375 -21.40625 L 25.984375 -21.40625 L 25.984375 0 L 18.6875 0 L 18.6875 -2.421875 L 18.609375 -2.421875 C 16.773438 -0.390625 14.4375 0.625 11.59375 0.625 C 8.507812 0.625 5.960938 -0.460938 3.953125 -2.640625 Z M 10.234375 -14.3125 C 9.273438 -13.363281 8.796875 -12.148438 8.796875 -10.671875 C 8.796875 -9.203125 9.253906 -8 10.171875 -7.0625 C 11.097656 -6.132812 12.3125 -5.671875 13.8125 -5.671875 C 15.257812 -5.671875 16.445312 -6.144531 17.375 -7.09375 C 18.300781 -8.039062 18.765625 -9.238281 18.765625 -10.6875 C 18.765625 -12.15625 18.285156 -13.363281 17.328125 -14.3125 C 16.367188 -15.257812 15.195312 -15.734375 13.8125 -15.734375 C 12.394531 -15.734375 11.203125 -15.257812 10.234375 -14.3125 Z M 10.234375 -14.3125 "/></g></g></g><g fill="#fdf0d5" fill-opacity="1"><g transform="translate(102.716002, 189.233191)"><g><path d="M 2.5 0 L 2.5 -21.40625 L 9.890625 -21.40625 L 9.890625 -19.15625 L 9.96875 -19.15625 C 11.882812 -21.070312 13.929688 -22.03125 16.109375 -22.03125 C 17.160156 -22.03125 18.207031 -21.890625 19.25 -21.609375 C 20.289062 -21.328125 21.289062 -20.894531 22.25 -20.3125 C 23.21875 -19.726562 24 -18.898438 24.59375 -17.828125 C 25.1875 -16.765625 25.484375 -15.519531 25.484375 -14.09375 L 25.484375 0 L 18.109375 0 L 18.109375 -12.09375 C 18.109375 -13.207031 17.753906 -14.179688 17.046875 -15.015625 C 16.335938 -15.847656 15.410156 -16.265625 14.265625 -16.265625 C 13.148438 -16.265625 12.140625 -15.832031 11.234375 -14.96875 C 10.335938 -14.113281 9.890625 -13.15625 9.890625 -12.09375 L 9.890625 0 Z M 2.5 0 "/></g></g></g><g fill="#fdf0d5" fill-opacity="1"><g transform="translate(126.369759, 189.233191)"><g><path d="M 11.8125 -22.03125 C 13.03125 -22.03125 14.238281 -21.890625 15.4375 -21.609375 C 16.632812 -21.328125 17.523438 -21.050781 18.109375 -20.78125 L 18.984375 -20.359375 L 16.5625 -15.515625 C 14.894531 -16.410156 13.3125 -16.859375 11.8125 -16.859375 C 10.976562 -16.859375 10.382812 -16.765625 10.03125 -16.578125 C 9.6875 -16.398438 9.515625 -16.0625 9.515625 -15.5625 C 9.515625 -15.445312 9.523438 -15.332031 9.546875 -15.21875 C 9.578125 -15.113281 9.632812 -15.007812 9.71875 -14.90625 C 9.800781 -14.8125 9.875 -14.726562 9.9375 -14.65625 C 10.007812 -14.59375 10.128906 -14.519531 10.296875 -14.4375 C 10.472656 -14.351562 10.609375 -14.289062 10.703125 -14.25 C 10.796875 -14.207031 10.953125 -14.144531 11.171875 -14.0625 C 11.398438 -13.976562 11.566406 -13.914062 11.671875 -13.875 C 11.785156 -13.832031 11.972656 -13.769531 12.234375 -13.6875 C 12.503906 -13.601562 12.707031 -13.546875 12.84375 -13.515625 C 13.707031 -13.265625 14.457031 -12.984375 15.09375 -12.671875 C 15.738281 -12.367188 16.414062 -11.953125 17.125 -11.421875 C 17.832031 -10.898438 18.378906 -10.234375 18.765625 -9.421875 C 19.160156 -8.617188 19.359375 -7.703125 19.359375 -6.671875 C 19.359375 -1.804688 15.976562 0.625 9.21875 0.625 C 7.6875 0.625 6.234375 0.390625 4.859375 -0.078125 C 3.484375 -0.554688 2.488281 -1.03125 1.875 -1.5 L 0.953125 -2.25 L 3.96875 -7.296875 C 4.1875 -7.109375 4.472656 -6.878906 4.828125 -6.609375 C 5.191406 -6.347656 5.847656 -5.988281 6.796875 -5.53125 C 7.742188 -5.070312 8.566406 -4.84375 9.265625 -4.84375 C 10.796875 -4.84375 11.5625 -5.359375 11.5625 -6.390625 C 11.5625 -6.859375 11.363281 -7.222656 10.96875 -7.484375 C 10.582031 -7.753906 9.921875 -8.054688 8.984375 -8.390625 C 8.054688 -8.722656 7.328125 -9.023438 6.796875 -9.296875 C 5.460938 -9.992188 4.40625 -10.78125 3.625 -11.65625 C 2.851562 -12.53125 2.46875 -13.691406 2.46875 -15.140625 C 2.46875 -17.304688 3.304688 -18.992188 4.984375 -20.203125 C 6.671875 -21.421875 8.945312 -22.03125 11.8125 -22.03125 Z M 11.8125 -22.03125 "/></g></g></g><g fill="#fdf0d5" fill-opacity="1"><g transform="translate(142.973052, 189.233191)"><g><path d="M 13.890625 -15.984375 C 12.503906 -15.984375 11.304688 -15.46875 10.296875 -14.4375 C 9.296875 -13.40625 8.796875 -12.164062 8.796875 -10.71875 C 8.796875 -9.25 9.296875 -8 10.296875 -6.96875 C 11.304688 -5.9375 12.503906 -5.421875 13.890625 -5.421875 C 14.554688 -5.421875 15.1875 -5.503906 15.78125 -5.671875 C 16.382812 -5.835938 16.828125 -6.003906 17.109375 -6.171875 L 17.484375 -6.421875 L 19.984375 -1.296875 C 19.785156 -1.148438 19.507812 -0.972656 19.15625 -0.765625 C 18.8125 -0.554688 18.019531 -0.273438 16.78125 0.078125 C 15.550781 0.441406 14.226562 0.625 12.8125 0.625 C 9.664062 0.625 6.898438 -0.476562 4.515625 -2.6875 C 2.140625 -4.894531 0.953125 -7.546875 0.953125 -10.640625 C 0.953125 -13.753906 2.140625 -16.429688 4.515625 -18.671875 C 6.898438 -20.910156 9.664062 -22.03125 12.8125 -22.03125 C 14.226562 -22.03125 15.53125 -21.863281 16.71875 -21.53125 C 17.914062 -21.195312 18.769531 -20.863281 19.28125 -20.53125 L 19.984375 -20.03125 L 17.484375 -14.984375 C 16.566406 -15.648438 15.367188 -15.984375 13.890625 -15.984375 Z M 13.890625 -15.984375 "/></g></g></g><g fill="#fdf0d5" fill-opacity="1"><g transform="translate(159.534632, 189.233191)"><g><path d="M 24.15625 -9.671875 L 8.640625 -9.671875 C 8.640625 -8.171875 9.125 -7.054688 10.09375 -6.328125 C 11.070312 -5.609375 12.128906 -5.25 13.265625 -5.25 C 14.460938 -5.25 15.40625 -5.410156 16.09375 -5.734375 C 16.789062 -6.054688 17.585938 -6.691406 18.484375 -7.640625 L 23.828125 -4.96875 C 21.597656 -1.238281 17.894531 0.625 12.71875 0.625 C 9.5 0.625 6.734375 -0.476562 4.421875 -2.6875 C 2.109375 -4.894531 0.953125 -7.554688 0.953125 -10.671875 C 0.953125 -13.796875 2.109375 -16.46875 4.421875 -18.6875 C 6.734375 -20.914062 9.5 -22.03125 12.71875 -22.03125 C 16.113281 -22.03125 18.875 -21.046875 21 -19.078125 C 23.132812 -17.117188 24.203125 -14.320312 24.203125 -10.6875 C 24.203125 -10.175781 24.1875 -9.835938 24.15625 -9.671875 Z M 8.84375 -13.765625 L 16.984375 -13.765625 C 16.816406 -14.878906 16.375 -15.734375 15.65625 -16.328125 C 14.945312 -16.929688 14.039062 -17.234375 12.9375 -17.234375 C 11.707031 -17.234375 10.726562 -16.910156 10 -16.265625 C 9.28125 -15.628906 8.894531 -14.796875 8.84375 -13.765625 Z M 8.84375 -13.765625 "/></g></g></g><g fill="#fdf0d5" fill-opacity="1"><g transform="translate(180.768708, 189.233191)"><g><path d="M 2.5 0 L 2.5 -21.40625 L 9.890625 -21.40625 L 9.890625 -19.15625 L 9.96875 -19.15625 C 11.882812 -21.070312 13.929688 -22.03125 16.109375 -22.03125 C 17.160156 -22.03125 18.207031 -21.890625 19.25 -21.609375 C 20.289062 -21.328125 21.289062 -20.894531 22.25 -20.3125 C 23.21875 -19.726562 24 -18.898438 24.59375 -17.828125 C 25.1875 -16.765625 25.484375 -15.519531 25.484375 -14.09375 L 25.484375 0 L 18.109375 0 L 18.109375 -12.09375 C 18.109375 -13.207031 17.753906 -14.179688 17.046875 -15.015625 C 16.335938 -15.847656 15.410156 -16.265625 14.265625 -16.265625 C 13.148438 -16.265625 12.140625 -15.832031 11.234375 -14.96875 C 10.335938 -14.113281 9.890625 -13.15625 9.890625 -12.09375 L 9.890625 0 Z M 2.5 0 "/></g></g></g><g fill="#fdf0d5" fill-opacity="1"><g transform="translate(204.422465, 189.233191)"><g><path d="M 3.953125 -2.640625 C 1.953125 -4.828125 0.953125 -7.503906 0.953125 -10.671875 C 0.953125 -13.847656 1.953125 -16.535156 3.953125 -18.734375 C 5.960938 -20.929688 8.507812 -22.03125 11.59375 -22.03125 C 14.4375 -22.03125 16.773438 -21.140625 18.609375 -19.359375 L 18.609375 -35.875 L 25.984375 -35.875 L 25.984375 0 L 18.6875 0 L 18.6875 -2.421875 L 18.609375 -2.421875 C 16.773438 -0.390625 14.4375 0.625 11.59375 0.625 C 8.507812 0.625 5.960938 -0.460938 3.953125 -2.640625 Z M 10.234375 -14.3125 C 9.273438 -13.363281 8.796875 -12.148438 8.796875 -10.671875 C 8.796875 -9.203125 9.253906 -8 10.171875 -7.0625 C 11.097656 -6.132812 12.3125 -5.671875 13.8125 -5.671875 C 15.257812 -5.671875 16.445312 -6.144531 17.375 -7.09375 C 18.300781 -8.039062 18.765625 -9.238281 18.765625 -10.6875 C 18.765625 -12.15625 18.285156 -13.363281 17.328125 -14.3125 C 16.367188 -15.257812 15.195312 -15.734375 13.8125 -15.734375 C 12.394531 -15.734375 11.203125 -15.257812 10.234375 -14.3125 Z M 10.234375 -14.3125 "/></g></g></g><g fill="#fdf0d5" fill-opacity="1"><g transform="translate(228.994039, 189.233191)"><g><path d="M 24.15625 -9.671875 L 8.640625 -9.671875 C 8.640625 -8.171875 9.125 -7.054688 10.09375 -6.328125 C 11.070312 -5.609375 12.128906 -5.25 13.265625 -5.25 C 14.460938 -5.25 15.40625 -5.410156 16.09375 -5.734375 C 16.789062 -6.054688 17.585938 -6.691406 18.484375 -7.640625 L 23.828125 -4.96875 C 21.597656 -1.238281 17.894531 0.625 12.71875 0.625 C 9.5 0.625 6.734375 -0.476562 4.421875 -2.6875 C 2.109375 -4.894531 0.953125 -7.554688 0.953125 -10.671875 C 0.953125 -13.796875 2.109375 -16.46875 4.421875 -18.6875 C 6.734375 -20.914062 9.5 -22.03125 12.71875 -22.03125 C 16.113281 -22.03125 18.875 -21.046875 21 -19.078125 C 23.132812 -17.117188 24.203125 -14.320312 24.203125 -10.6875 C 24.203125 -10.175781 24.1875 -9.835938 24.15625 -9.671875 Z M 8.84375 -13.765625 L 16.984375 -13.765625 C 16.816406 -14.878906 16.375 -15.734375 15.65625 -16.328125 C 14.945312 -16.929688 14.039062 -17.234375 12.9375 -17.234375 C 11.707031 -17.234375 10.726562 -16.910156 10 -16.265625 C 9.28125 -15.628906 8.894531 -14.796875 8.84375 -13.765625 Z M 8.84375 -13.765625 "/></g></g></g><g fill="#fdf0d5" fill-opacity="1"><g transform="translate(250.228115, 189.233191)"><g><path d="M 2.5 0 L 2.5 -21.40625 L 9.890625 -21.40625 L 9.890625 -19.15625 L 9.96875 -19.15625 C 11.882812 -21.070312 13.929688 -22.03125 16.109375 -22.03125 C 17.160156 -22.03125 18.207031 -21.890625 19.25 -21.609375 C 20.289062 -21.328125 21.289062 -20.894531 22.25 -20.3125 C 23.21875 -19.726562 24 -18.898438 24.59375 -17.828125 C 25.1875 -16.765625 25.484375 -15.519531 25.484375 -14.09375 L 25.484375 0 L 18.109375 0 L 18.109375 -12.09375 C 18.109375 -13.207031 17.753906 -14.179688 17.046875 -15.015625 C 16.335938 -15.847656 15.410156 -16.265625 14.265625 -16.265625 C 13.148438 -16.265625 12.140625 -15.832031 11.234375 -14.96875 C 10.335938 -14.113281 9.890625 -13.15625 9.890625 -12.09375 L 9.890625 0 Z M 2.5 0 "/></g></g></g><g fill="#fdf0d5" fill-opacity="1"><g transform="translate(273.88186, 189.233191)"><g><path d="M 13.890625 -15.984375 C 12.503906 -15.984375 11.304688 -15.46875 10.296875 -14.4375 C 9.296875 -13.40625 8.796875 -12.164062 8.796875 -10.71875 C 8.796875 -9.25 9.296875 -8 10.296875 -6.96875 C 11.304688 -5.9375 12.503906 -5.421875 13.890625 -5.421875 C 14.554688 -5.421875 15.1875 -5.503906 15.78125 -5.671875 C 16.382812 -5.835938 16.828125 -6.003906 17.109375 -6.171875 L 17.484375 -6.421875 L 19.984375 -1.296875 C 19.785156 -1.148438 19.507812 -0.972656 19.15625 -0.765625 C 18.8125 -0.554688 18.019531 -0.273438 16.78125 0.078125 C 15.550781 0.441406 14.226562 0.625 12.8125 0.625 C 9.664062 0.625 6.898438 -0.476562 4.515625 -2.6875 C 2.140625 -4.894531 0.953125 -7.546875 0.953125 -10.640625 C 0.953125 -13.753906 2.140625 -16.429688 4.515625 -18.671875 C 6.898438 -20.910156 9.664062 -22.03125 12.8125 -22.03125 C 14.226562 -22.03125 15.53125 -21.863281 16.71875 -21.53125 C 17.914062 -21.195312 18.769531 -20.863281 19.28125 -20.53125 L 19.984375 -20.03125 L 17.484375 -14.984375 C 16.566406 -15.648438 15.367188 -15.984375 13.890625 -15.984375 Z M 13.890625 -15.984375 "/></g></g></g><g fill="#fdf0d5" fill-opacity="1"><g transform="translate(290.443428, 189.233191)"><g><path d="M 24.15625 -9.671875 L 8.640625 -9.671875 C 8.640625 -8.171875 9.125 -7.054688 10.09375 -6.328125 C 11.070312 -5.609375 12.128906 -5.25 13.265625 -5.25 C 14.460938 -5.25 15.40625 -5.410156 16.09375 -5.734375 C 16.789062 -6.054688 17.585938 -6.691406 18.484375 -7.640625 L 23.828125 -4.96875 C 21.597656 -1.238281 17.894531 0.625 12.71875 0.625 C 9.5 0.625 6.734375 -0.476562 4.421875 -2.6875 C 2.109375 -4.894531 0.953125 -7.554688 0.953125 -10.671875 C 0.953125 -13.796875 2.109375 -16.46875 4.421875 -18.6875 C 6.734375 -20.914062 9.5 -22.03125 12.71875 -22.03125 C 16.113281 -22.03125 18.875 -21.046875 21 -19.078125 C 23.132812 -17.117188 24.203125 -14.320312 24.203125 -10.6875 C 24.203125 -10.175781 24.1875 -9.835938 24.15625 -9.671875 Z M 8.84375 -13.765625 L 16.984375 -13.765625 C 16.816406 -14.878906 16.375 -15.734375 15.65625 -16.328125 C 14.945312 -16.929688 14.039062 -17.234375 12.9375 -17.234375 C 11.707031 -17.234375 10.726562 -16.910156 10 -16.265625 C 9.28125 -15.628906 8.894531 -14.796875 8.84375 -13.765625 Z M 8.84375 -13.765625 "/></g></g></g><g fill="#fdf0d5" fill-opacity="1"><g transform="translate(311.677504, 189.233191)"><g><path d="M 7.265625 -8.921875 C 8.597656 -8.921875 9.726562 -8.453125 10.65625 -7.515625 C 11.59375 -6.585938 12.0625 -5.457031 12.0625 -4.125 C 12.0625 -2.820312 11.59375 -1.703125 10.65625 -0.765625 C 9.726562 0.160156 8.597656 0.625 7.265625 0.625 C 5.953125 0.625 4.828125 0.160156 3.890625 -0.765625 C 2.960938 -1.703125 2.5 -2.820312 2.5 -4.125 C 2.5 -5.457031 2.960938 -6.585938 3.890625 -7.515625 C 4.828125 -8.453125 5.953125 -8.921875 7.265625 -8.921875 Z M 7.265625 -8.921875 "/></g></g></g><path stroke-linecap="butt" transform="matrix(0, 0.75, -0.75, 0, 67.083091, 208.239978)" fill="none" stroke-linejoin="miter" d="M -0.0022617 1.501413 L 29.294615 1.501413 " stroke="#fdf0d5" stroke-width="3" stroke-opacity="1" stroke-miterlimit="4"/><path stroke-linecap="butt" transform="matrix(0, 0.75, -0.75, 0, 312.730208, 190.672927)" fill="none" stroke-linejoin="miter" d="M -0.00140224 1.499652 L 29.295475 1.499652 " stroke="#fdf0d5" stroke-width="3" stroke-opacity="1" stroke-miterlimit="4"/><g clip-path="url(#7eea5f5a91)"><g clip-path="url(#b4ca48209d)"><path fill="#fdf0d5" d="M 186.585938 208.234375 L 190.988281 208.234375 L 190.988281 212.640625 L 186.585938 212.640625 Z M 186.585938 208.234375 " fill-opacity="1" fill-rule="nonzero"/></g></g><g fill="#fdf0d5" fill-opacity="1"><g transform="translate(140.855023, 225.227515)"><g><path d="M 5.640625 -4.46875 C 6.617188 -4.46875 7.109375 -3.859375 7.109375 -2.640625 L 7.109375 -0.40625 C 7.109375 -0.28125 7.070312 -0.179688 7 -0.109375 C 6.925781 -0.0351562 6.832031 0 6.71875 0 C 6.59375 0 6.492188 -0.0351562 6.421875 -0.109375 C 6.347656 -0.191406 6.3125 -0.289062 6.3125 -0.40625 L 6.3125 -2.640625 C 6.3125 -3.367188 6.003906 -3.734375 5.390625 -3.734375 C 5.171875 -3.734375 4.972656 -3.679688 4.796875 -3.578125 C 4.617188 -3.484375 4.476562 -3.351562 4.375 -3.1875 C 4.28125 -3.019531 4.234375 -2.835938 4.234375 -2.640625 L 4.234375 -0.40625 C 4.234375 -0.289062 4.195312 -0.191406 4.125 -0.109375 C 4.050781 -0.0351562 3.953125 0 3.828125 0 C 3.710938 0 3.617188 -0.0351562 3.546875 -0.109375 C 3.472656 -0.179688 3.4375 -0.28125 3.4375 -0.40625 L 3.4375 -2.640625 C 3.4375 -2.972656 3.363281 -3.238281 3.21875 -3.4375 C 3.082031 -3.632812 2.851562 -3.734375 2.53125 -3.734375 C 2.195312 -3.734375 1.921875 -3.628906 1.703125 -3.421875 C 1.492188 -3.210938 1.390625 -2.953125 1.390625 -2.640625 L 1.390625 -0.40625 C 1.390625 -0.289062 1.351562 -0.191406 1.28125 -0.109375 C 1.207031 -0.0351562 1.109375 0 0.984375 0 C 0.867188 0 0.773438 -0.0351562 0.703125 -0.109375 C 0.628906 -0.179688 0.59375 -0.28125 0.59375 -0.40625 L 0.59375 -4 C 0.59375 -4.101562 0.628906 -4.191406 0.703125 -4.265625 C 0.785156 -4.347656 0.878906 -4.390625 0.984375 -4.390625 C 1.109375 -4.390625 1.207031 -4.347656 1.28125 -4.265625 C 1.351562 -4.191406 1.390625 -4.101562 1.390625 -4 L 1.390625 -3.703125 C 1.535156 -3.921875 1.726562 -4.101562 1.96875 -4.25 C 2.21875 -4.394531 2.484375 -4.46875 2.765625 -4.46875 C 3.460938 -4.46875 3.914062 -4.160156 4.125 -3.546875 C 4.238281 -3.785156 4.4375 -4 4.71875 -4.1875 C 5.007812 -4.375 5.316406 -4.46875 5.640625 -4.46875 Z M 5.640625 -4.46875 "/></g></g></g><g fill="#fdf0d5" fill-opacity="1"><g transform="translate(154.03468, 225.227515)"><g><path d="M 4.15625 -4.453125 C 4.28125 -4.453125 4.378906 -4.414062 4.453125 -4.34375 C 4.523438 -4.269531 4.5625 -4.171875 4.5625 -4.046875 L 4.5625 -0.40625 C 4.5625 -0.289062 4.523438 -0.191406 4.453125 -0.109375 C 4.378906 -0.0351562 4.28125 0 4.15625 0 C 4.039062 0 3.945312 -0.0351562 3.875 -0.109375 C 3.800781 -0.179688 3.765625 -0.28125 3.765625 -0.40625 L 3.765625 -0.625 C 3.617188 -0.425781 3.421875 -0.257812 3.171875 -0.125 C 2.921875 0.0078125 2.648438 0.078125 2.359375 0.078125 C 1.972656 0.078125 1.625 -0.015625 1.3125 -0.203125 C 1.007812 -0.398438 0.769531 -0.671875 0.59375 -1.015625 C 0.414062 -1.367188 0.328125 -1.765625 0.328125 -2.203125 C 0.328125 -2.640625 0.414062 -3.03125 0.59375 -3.375 C 0.769531 -3.726562 1.007812 -4.003906 1.3125 -4.203125 C 1.625 -4.398438 1.960938 -4.5 2.328125 -4.5 C 2.628906 -4.5 2.90625 -4.4375 3.15625 -4.3125 C 3.414062 -4.1875 3.617188 -4.03125 3.765625 -3.84375 L 3.765625 -4.046875 C 3.765625 -4.160156 3.800781 -4.253906 3.875 -4.328125 C 3.945312 -4.410156 4.039062 -4.453125 4.15625 -4.453125 Z M 2.453125 -0.65625 C 2.710938 -0.65625 2.941406 -0.722656 3.140625 -0.859375 C 3.347656 -0.992188 3.507812 -1.175781 3.625 -1.40625 C 3.738281 -1.644531 3.796875 -1.910156 3.796875 -2.203125 C 3.796875 -2.492188 3.738281 -2.753906 3.625 -2.984375 C 3.507812 -3.222656 3.347656 -3.410156 3.140625 -3.546875 C 2.941406 -3.691406 2.710938 -3.765625 2.453125 -3.765625 C 2.191406 -3.765625 1.957031 -3.695312 1.75 -3.5625 C 1.539062 -3.425781 1.378906 -3.238281 1.265625 -3 C 1.148438 -2.769531 1.09375 -2.503906 1.09375 -2.203125 C 1.09375 -1.910156 1.148438 -1.644531 1.265625 -1.40625 C 1.378906 -1.175781 1.539062 -0.992188 1.75 -0.859375 C 1.957031 -0.722656 2.191406 -0.65625 2.453125 -0.65625 Z M 2.453125 -0.65625 "/></g></g></g><g fill="#fdf0d5" fill-opacity="1"><g transform="translate(164.663009, 225.227515)"><g><path d="M 4.1875 -0.703125 C 4.269531 -0.609375 4.3125 -0.507812 4.3125 -0.40625 C 4.3125 -0.289062 4.265625 -0.195312 4.171875 -0.125 C 4.085938 -0.0507812 4 -0.015625 3.90625 -0.015625 C 3.78125 -0.015625 3.679688 -0.0546875 3.609375 -0.140625 L 1.96875 -1.890625 L 1.453125 -1.4375 L 1.453125 -0.40625 C 1.453125 -0.289062 1.414062 -0.191406 1.34375 -0.109375 C 1.269531 -0.0351562 1.175781 0 1.0625 0 C 0.945312 0 0.847656 -0.0351562 0.765625 -0.109375 C 0.691406 -0.191406 0.65625 -0.289062 0.65625 -0.40625 L 0.65625 -5.8125 C 0.65625 -5.914062 0.691406 -6.003906 0.765625 -6.078125 C 0.847656 -6.160156 0.945312 -6.203125 1.0625 -6.203125 C 1.175781 -6.203125 1.269531 -6.160156 1.34375 -6.078125 C 1.414062 -6.003906 1.453125 -5.914062 1.453125 -5.8125 L 1.453125 -2.40625 L 3.515625 -4.28125 C 3.609375 -4.363281 3.707031 -4.40625 3.8125 -4.40625 C 3.90625 -4.40625 3.988281 -4.363281 4.0625 -4.28125 C 4.144531 -4.207031 4.1875 -4.125 4.1875 -4.03125 C 4.1875 -3.925781 4.132812 -3.828125 4.03125 -3.734375 L 2.578125 -2.4375 Z M 4.1875 -0.703125 "/></g></g></g><g fill="#fdf0d5" fill-opacity="1"><g transform="translate(174.796173, 225.227515)"><g><path d="M 4.453125 -2.359375 C 4.453125 -2.265625 4.410156 -2.179688 4.328125 -2.109375 C 4.253906 -2.035156 4.160156 -2 4.046875 -2 L 1.09375 -2 C 1.132812 -1.59375 1.289062 -1.265625 1.5625 -1.015625 C 1.832031 -0.773438 2.164062 -0.65625 2.5625 -0.65625 C 2.832031 -0.65625 3.050781 -0.691406 3.21875 -0.765625 C 3.382812 -0.847656 3.53125 -0.953125 3.65625 -1.078125 C 3.738281 -1.128906 3.820312 -1.15625 3.90625 -1.15625 C 4 -1.15625 4.078125 -1.117188 4.140625 -1.046875 C 4.203125 -0.984375 4.234375 -0.90625 4.234375 -0.8125 C 4.234375 -0.695312 4.175781 -0.59375 4.0625 -0.5 C 3.90625 -0.332031 3.691406 -0.191406 3.421875 -0.078125 C 3.148438 0.0234375 2.875 0.078125 2.59375 0.078125 C 2.144531 0.078125 1.75 -0.015625 1.40625 -0.203125 C 1.0625 -0.390625 0.796875 -0.65625 0.609375 -1 C 0.421875 -1.34375 0.328125 -1.726562 0.328125 -2.15625 C 0.328125 -2.625 0.421875 -3.035156 0.609375 -3.390625 C 0.804688 -3.742188 1.0625 -4.015625 1.375 -4.203125 C 1.695312 -4.398438 2.039062 -4.5 2.40625 -4.5 C 2.757812 -4.5 3.09375 -4.40625 3.40625 -4.21875 C 3.71875 -4.03125 3.96875 -3.773438 4.15625 -3.453125 C 4.351562 -3.128906 4.453125 -2.765625 4.453125 -2.359375 Z M 2.40625 -3.765625 C 2.09375 -3.765625 1.816406 -3.675781 1.578125 -3.5 C 1.347656 -3.320312 1.195312 -3.046875 1.125 -2.671875 L 3.609375 -2.671875 L 3.609375 -2.75 C 3.578125 -3.039062 3.441406 -3.28125 3.203125 -3.46875 C 2.972656 -3.664062 2.707031 -3.765625 2.40625 -3.765625 Z M 2.40625 -3.765625 "/></g></g></g><g fill="#fdf0d5" fill-opacity="1"><g transform="translate(185.055223, 225.227515)"><g/></g></g><g fill="#fdf0d5" fill-opacity="1"><g transform="translate(192.855262, 225.227515)"><g><path d="M 2.796875 -4.46875 C 3.179688 -4.46875 3.523438 -4.367188 3.828125 -4.171875 C 4.140625 -3.984375 4.382812 -3.71875 4.5625 -3.375 C 4.738281 -3.03125 4.828125 -2.640625 4.828125 -2.203125 C 4.828125 -1.765625 4.738281 -1.375 4.5625 -1.03125 C 4.382812 -0.6875 4.140625 -0.414062 3.828125 -0.21875 C 3.523438 -0.0195312 3.1875 0.078125 2.8125 0.078125 C 2.53125 0.078125 2.257812 0.015625 2 -0.109375 C 1.75 -0.242188 1.546875 -0.40625 1.390625 -0.59375 L 1.390625 1.28125 C 1.390625 1.382812 1.351562 1.472656 1.28125 1.546875 C 1.207031 1.628906 1.109375 1.671875 0.984375 1.671875 C 0.878906 1.671875 0.785156 1.632812 0.703125 1.5625 C 0.628906 1.488281 0.59375 1.394531 0.59375 1.28125 L 0.59375 -4 C 0.59375 -4.113281 0.628906 -4.207031 0.703125 -4.28125 C 0.773438 -4.363281 0.867188 -4.40625 0.984375 -4.40625 C 1.109375 -4.40625 1.207031 -4.363281 1.28125 -4.28125 C 1.351562 -4.207031 1.390625 -4.113281 1.390625 -4 L 1.390625 -3.765625 C 1.523438 -3.953125 1.71875 -4.113281 1.96875 -4.25 C 2.226562 -4.394531 2.503906 -4.46875 2.796875 -4.46875 Z M 2.703125 -0.65625 C 2.960938 -0.65625 3.195312 -0.722656 3.40625 -0.859375 C 3.613281 -0.992188 3.773438 -1.175781 3.890625 -1.40625 C 4.003906 -1.644531 4.0625 -1.910156 4.0625 -2.203125 C 4.0625 -2.492188 4.003906 -2.753906 3.890625 -2.984375 C 3.773438 -3.210938 3.613281 -3.394531 3.40625 -3.53125 C 3.195312 -3.664062 2.960938 -3.734375 2.703125 -3.734375 C 2.441406 -3.734375 2.207031 -3.664062 2 -3.53125 C 1.789062 -3.40625 1.628906 -3.222656 1.515625 -2.984375 C 1.398438 -2.753906 1.34375 -2.492188 1.34375 -2.203125 C 1.34375 -1.910156 1.398438 -1.644531 1.515625 -1.40625 C 1.628906 -1.175781 1.789062 -0.992188 2 -0.859375 C 2.207031 -0.722656 2.441406 -0.65625 2.703125 -0.65625 Z M 2.703125 -0.65625 "/></g></g></g><g fill="#fdf0d5" fill-opacity="1"><g transform="translate(203.483591, 225.227515)"><g><path d="M 4.75 -2.203125 C 4.75 -1.765625 4.648438 -1.367188 4.453125 -1.015625 C 4.265625 -0.671875 4 -0.398438 3.65625 -0.203125 C 3.320312 -0.015625 2.953125 0.078125 2.546875 0.078125 C 2.140625 0.078125 1.765625 -0.015625 1.421875 -0.203125 C 1.085938 -0.398438 0.820312 -0.671875 0.625 -1.015625 C 0.425781 -1.367188 0.328125 -1.765625 0.328125 -2.203125 C 0.328125 -2.640625 0.425781 -3.03125 0.625 -3.375 C 0.820312 -3.726562 1.085938 -4.003906 1.421875 -4.203125 C 1.765625 -4.398438 2.140625 -4.5 2.546875 -4.5 C 2.953125 -4.5 3.320312 -4.398438 3.65625 -4.203125 C 4 -4.003906 4.265625 -3.726562 4.453125 -3.375 C 4.648438 -3.03125 4.75 -2.640625 4.75 -2.203125 Z M 3.953125 -2.203125 C 3.953125 -2.503906 3.890625 -2.769531 3.765625 -3 C 3.640625 -3.238281 3.46875 -3.425781 3.25 -3.5625 C 3.039062 -3.695312 2.804688 -3.765625 2.546875 -3.765625 C 2.273438 -3.765625 2.03125 -3.695312 1.8125 -3.5625 C 1.601562 -3.425781 1.4375 -3.238281 1.3125 -3 C 1.1875 -2.769531 1.125 -2.503906 1.125 -2.203125 C 1.125 -1.898438 1.1875 -1.628906 1.3125 -1.390625 C 1.4375 -1.160156 1.601562 -0.976562 1.8125 -0.84375 C 2.03125 -0.71875 2.273438 -0.65625 2.546875 -0.65625 C 2.804688 -0.65625 3.039062 -0.71875 3.25 -0.84375 C 3.46875 -0.976562 3.640625 -1.160156 3.765625 -1.390625 C 3.890625 -1.628906 3.953125 -1.898438 3.953125 -2.203125 Z M 3.953125 -2.203125 "/></g></g></g><g fill="#fdf0d5" fill-opacity="1"><g transform="translate(214.044777, 225.227515)"><g><path d="M 2.84375 -4.5 C 3.84375 -4.5 4.34375 -3.894531 4.34375 -2.6875 L 4.34375 -0.40625 C 4.34375 -0.289062 4.304688 -0.191406 4.234375 -0.109375 C 4.160156 -0.0351562 4.0625 0 3.9375 0 C 3.832031 0 3.738281 -0.0351562 3.65625 -0.109375 C 3.582031 -0.191406 3.546875 -0.289062 3.546875 -0.40625 L 3.546875 -2.671875 C 3.546875 -3.003906 3.46875 -3.269531 3.3125 -3.46875 C 3.164062 -3.664062 2.921875 -3.765625 2.578125 -3.765625 C 2.359375 -3.765625 2.15625 -3.710938 1.96875 -3.609375 C 1.789062 -3.515625 1.648438 -3.382812 1.546875 -3.21875 C 1.441406 -3.050781 1.390625 -2.867188 1.390625 -2.671875 L 1.390625 -0.40625 C 1.390625 -0.289062 1.351562 -0.191406 1.28125 -0.109375 C 1.207031 -0.0351562 1.109375 0 0.984375 0 C 0.867188 0 0.773438 -0.0351562 0.703125 -0.109375 C 0.628906 -0.179688 0.59375 -0.28125 0.59375 -0.40625 L 0.59375 -4 C 0.59375 -4.101562 0.628906 -4.191406 0.703125 -4.265625 C 0.785156 -4.347656 0.878906 -4.390625 0.984375 -4.390625 C 1.109375 -4.390625 1.207031 -4.347656 1.28125 -4.265625 C 1.351562 -4.191406 1.390625 -4.101562 1.390625 -4 L 1.390625 -3.703125 C 1.535156 -3.921875 1.738281 -4.109375 2 -4.265625 C 2.257812 -4.421875 2.539062 -4.5 2.84375 -4.5 Z M 2.84375 -4.5 "/></g></g></g><g fill="#fdf0d5" fill-opacity="1"><g transform="translate(224.463287, 225.227515)"><g><path d="M 4.265625 -4.453125 C 4.390625 -4.453125 4.488281 -4.414062 4.5625 -4.34375 C 4.632812 -4.269531 4.671875 -4.171875 4.671875 -4.046875 L 4.671875 -0.359375 C 4.671875 0.0976562 4.570312 0.476562 4.375 0.78125 C 4.1875 1.082031 3.925781 1.304688 3.59375 1.453125 C 3.269531 1.597656 2.898438 1.671875 2.484375 1.671875 C 2.253906 1.671875 1.988281 1.628906 1.6875 1.546875 C 1.394531 1.472656 1.207031 1.394531 1.125 1.3125 C 0.945312 1.226562 0.859375 1.117188 0.859375 0.984375 C 0.859375 0.953125 0.867188 0.90625 0.890625 0.84375 C 0.953125 0.707031 1.054688 0.640625 1.203125 0.640625 C 1.273438 0.640625 1.351562 0.65625 1.4375 0.6875 C 1.882812 0.863281 2.234375 0.953125 2.484375 0.953125 C 2.929688 0.953125 3.273438 0.84375 3.515625 0.625 C 3.753906 0.40625 3.875 0.109375 3.875 -0.265625 L 3.875 -0.71875 C 3.757812 -0.5 3.5625 -0.3125 3.28125 -0.15625 C 3.007812 0 2.71875 0.078125 2.40625 0.078125 C 2.019531 0.078125 1.664062 -0.015625 1.34375 -0.203125 C 1.03125 -0.398438 0.78125 -0.671875 0.59375 -1.015625 C 0.414062 -1.367188 0.328125 -1.765625 0.328125 -2.203125 C 0.328125 -2.640625 0.414062 -3.03125 0.59375 -3.375 C 0.78125 -3.726562 1.03125 -4.003906 1.34375 -4.203125 C 1.664062 -4.398438 2.015625 -4.5 2.390625 -4.5 C 2.703125 -4.5 2.988281 -4.425781 3.25 -4.28125 C 3.519531 -4.144531 3.726562 -3.976562 3.875 -3.78125 L 3.875 -4.046875 C 3.875 -4.160156 3.910156 -4.253906 3.984375 -4.328125 C 4.054688 -4.410156 4.148438 -4.453125 4.265625 -4.453125 Z M 2.5 -0.65625 C 2.769531 -0.65625 3.007812 -0.71875 3.21875 -0.84375 C 3.4375 -0.976562 3.601562 -1.164062 3.71875 -1.40625 C 3.84375 -1.644531 3.90625 -1.910156 3.90625 -2.203125 C 3.90625 -2.503906 3.84375 -2.769531 3.71875 -3 C 3.601562 -3.238281 3.4375 -3.425781 3.21875 -3.5625 C 3.007812 -3.695312 2.769531 -3.765625 2.5 -3.765625 C 2.226562 -3.765625 1.984375 -3.695312 1.765625 -3.5625 C 1.554688 -3.425781 1.390625 -3.238281 1.265625 -3 C 1.148438 -2.757812 1.09375 -2.492188 1.09375 -2.203125 C 1.09375 -1.910156 1.148438 -1.644531 1.265625 -1.40625 C 1.390625 -1.175781 1.554688 -0.992188 1.765625 -0.859375 C 1.984375 -0.722656 2.226562 -0.65625 2.5 -0.65625 Z M 2.5 -0.65625 "/></g></g></g><g fill="#fdf0d5" fill-opacity="1"><g transform="translate(159.321, 235.161633)"><g><path d="M 2.796875 -4.5 C 3.179688 -4.5 3.523438 -4.398438 3.828125 -4.203125 C 4.140625 -4.003906 4.382812 -3.734375 4.5625 -3.390625 C 4.738281 -3.046875 4.828125 -2.65625 4.828125 -2.21875 C 4.828125 -1.78125 4.738281 -1.382812 4.5625 -1.03125 C 4.382812 -0.675781 4.140625 -0.398438 3.828125 -0.203125 C 3.523438 -0.015625 3.1875 0.078125 2.8125 0.078125 C 2.53125 0.078125 2.257812 0.015625 2 -0.109375 C 1.75 -0.234375 1.546875 -0.394531 1.390625 -0.59375 L 1.390625 -0.34375 C 1.390625 -0.226562 1.351562 -0.128906 1.28125 -0.046875 C 1.207031 0.0234375 1.109375 0.0625 0.984375 0.0625 C 0.878906 0.0625 0.785156 0.0234375 0.703125 -0.046875 C 0.628906 -0.128906 0.59375 -0.226562 0.59375 -0.34375 L 0.59375 -5.8125 C 0.59375 -5.925781 0.628906 -6.019531 0.703125 -6.09375 C 0.773438 -6.164062 0.867188 -6.203125 0.984375 -6.203125 C 1.109375 -6.203125 1.207031 -6.160156 1.28125 -6.078125 C 1.351562 -6.003906 1.390625 -5.914062 1.390625 -5.8125 L 1.390625 -3.765625 C 1.523438 -3.960938 1.71875 -4.132812 1.96875 -4.28125 C 2.226562 -4.425781 2.503906 -4.5 2.796875 -4.5 Z M 2.703125 -0.65625 C 2.960938 -0.65625 3.195312 -0.722656 3.40625 -0.859375 C 3.613281 -0.992188 3.773438 -1.179688 3.890625 -1.421875 C 4.003906 -1.660156 4.0625 -1.925781 4.0625 -2.21875 C 4.0625 -2.507812 4.003906 -2.769531 3.890625 -3 C 3.773438 -3.238281 3.613281 -3.425781 3.40625 -3.5625 C 3.195312 -3.695312 2.960938 -3.765625 2.703125 -3.765625 C 2.441406 -3.765625 2.207031 -3.695312 2 -3.5625 C 1.789062 -3.425781 1.628906 -3.238281 1.515625 -3 C 1.398438 -2.769531 1.34375 -2.507812 1.34375 -2.21875 C 1.34375 -1.914062 1.398438 -1.644531 1.515625 -1.40625 C 1.628906 -1.175781 1.789062 -0.992188 2 -0.859375 C 2.207031 -0.722656 2.441406 -0.65625 2.703125 -0.65625 Z M 2.703125 -0.65625 "/></g></g></g><g fill="#fdf0d5" fill-opacity="1"><g transform="translate(169.949329, 235.161633)"><g><path d="M 4.453125 -2.359375 C 4.453125 -2.265625 4.410156 -2.179688 4.328125 -2.109375 C 4.253906 -2.035156 4.160156 -2 4.046875 -2 L 1.09375 -2 C 1.132812 -1.59375 1.289062 -1.265625 1.5625 -1.015625 C 1.832031 -0.773438 2.164062 -0.65625 2.5625 -0.65625 C 2.832031 -0.65625 3.050781 -0.691406 3.21875 -0.765625 C 3.382812 -0.847656 3.53125 -0.953125 3.65625 -1.078125 C 3.738281 -1.128906 3.820312 -1.15625 3.90625 -1.15625 C 4 -1.15625 4.078125 -1.117188 4.140625 -1.046875 C 4.203125 -0.984375 4.234375 -0.90625 4.234375 -0.8125 C 4.234375 -0.695312 4.175781 -0.59375 4.0625 -0.5 C 3.90625 -0.332031 3.691406 -0.191406 3.421875 -0.078125 C 3.148438 0.0234375 2.875 0.078125 2.59375 0.078125 C 2.144531 0.078125 1.75 -0.015625 1.40625 -0.203125 C 1.0625 -0.390625 0.796875 -0.65625 0.609375 -1 C 0.421875 -1.34375 0.328125 -1.726562 0.328125 -2.15625 C 0.328125 -2.625 0.421875 -3.035156 0.609375 -3.390625 C 0.804688 -3.742188 1.0625 -4.015625 1.375 -4.203125 C 1.695312 -4.398438 2.039062 -4.5 2.40625 -4.5 C 2.757812 -4.5 3.09375 -4.40625 3.40625 -4.21875 C 3.71875 -4.03125 3.96875 -3.773438 4.15625 -3.453125 C 4.351562 -3.128906 4.453125 -2.765625 4.453125 -2.359375 Z M 2.40625 -3.765625 C 2.09375 -3.765625 1.816406 -3.675781 1.578125 -3.5 C 1.347656 -3.320312 1.195312 -3.046875 1.125 -2.671875 L 3.609375 -2.671875 L 3.609375 -2.75 C 3.578125 -3.039062 3.441406 -3.28125 3.203125 -3.46875 C 2.972656 -3.664062 2.707031 -3.765625 2.40625 -3.765625 Z M 2.40625 -3.765625 "/></g></g></g><g fill="#fdf0d5" fill-opacity="1"><g transform="translate(180.208378, 235.161633)"><g><path d="M 1.78125 -3.609375 L 1.78125 -1.109375 C 1.78125 -0.835938 1.910156 -0.703125 2.171875 -0.703125 C 2.203125 -0.703125 2.25 -0.707031 2.3125 -0.71875 C 2.382812 -0.738281 2.441406 -0.75 2.484375 -0.75 C 2.554688 -0.75 2.617188 -0.71875 2.671875 -0.65625 C 2.722656 -0.601562 2.75 -0.523438 2.75 -0.421875 C 2.75 -0.304688 2.679688 -0.207031 2.546875 -0.125 C 2.410156 -0.0390625 2.257812 0 2.09375 0 C 1.90625 0 1.734375 -0.0195312 1.578125 -0.0625 C 1.421875 -0.101562 1.28125 -0.203125 1.15625 -0.359375 C 1.039062 -0.515625 0.984375 -0.753906 0.984375 -1.078125 L 0.984375 -3.609375 L 0.5 -3.609375 C 0.394531 -3.609375 0.304688 -3.644531 0.234375 -3.71875 C 0.171875 -3.789062 0.140625 -3.878906 0.140625 -3.984375 C 0.140625 -4.085938 0.171875 -4.171875 0.234375 -4.234375 C 0.304688 -4.304688 0.394531 -4.34375 0.5 -4.34375 L 0.984375 -4.34375 L 0.984375 -5.046875 C 0.984375 -5.160156 1.019531 -5.253906 1.09375 -5.328125 C 1.175781 -5.410156 1.273438 -5.453125 1.390625 -5.453125 C 1.503906 -5.453125 1.597656 -5.410156 1.671875 -5.328125 C 1.742188 -5.253906 1.78125 -5.160156 1.78125 -5.046875 L 1.78125 -4.34375 L 2.484375 -4.34375 C 2.585938 -4.34375 2.675781 -4.304688 2.75 -4.234375 C 2.820312 -4.171875 2.859375 -4.085938 2.859375 -3.984375 C 2.859375 -3.867188 2.820312 -3.773438 2.75 -3.703125 C 2.675781 -3.640625 2.585938 -3.609375 2.484375 -3.609375 Z M 1.78125 -3.609375 "/></g></g></g><g fill="#fdf0d5" fill-opacity="1"><g transform="translate(188.872852, 235.161633)"><g><path d="M 1.78125 -3.609375 L 1.78125 -1.109375 C 1.78125 -0.835938 1.910156 -0.703125 2.171875 -0.703125 C 2.203125 -0.703125 2.25 -0.707031 2.3125 -0.71875 C 2.382812 -0.738281 2.441406 -0.75 2.484375 -0.75 C 2.554688 -0.75 2.617188 -0.71875 2.671875 -0.65625 C 2.722656 -0.601562 2.75 -0.523438 2.75 -0.421875 C 2.75 -0.304688 2.679688 -0.207031 2.546875 -0.125 C 2.410156 -0.0390625 2.257812 0 2.09375 0 C 1.90625 0 1.734375 -0.0195312 1.578125 -0.0625 C 1.421875 -0.101562 1.28125 -0.203125 1.15625 -0.359375 C 1.039062 -0.515625 0.984375 -0.753906 0.984375 -1.078125 L 0.984375 -3.609375 L 0.5 -3.609375 C 0.394531 -3.609375 0.304688 -3.644531 0.234375 -3.71875 C 0.171875 -3.789062 0.140625 -3.878906 0.140625 -3.984375 C 0.140625 -4.085938 0.171875 -4.171875 0.234375 -4.234375 C 0.304688 -4.304688 0.394531 -4.34375 0.5 -4.34375 L 0.984375 -4.34375 L 0.984375 -5.046875 C 0.984375 -5.160156 1.019531 -5.253906 1.09375 -5.328125 C 1.175781 -5.410156 1.273438 -5.453125 1.390625 -5.453125 C 1.503906 -5.453125 1.597656 -5.410156 1.671875 -5.328125 C 1.742188 -5.253906 1.78125 -5.160156 1.78125 -5.046875 L 1.78125 -4.34375 L 2.484375 -4.34375 C 2.585938 -4.34375 2.675781 -4.304688 2.75 -4.234375 C 2.820312 -4.171875 2.859375 -4.085938 2.859375 -3.984375 C 2.859375 -3.867188 2.820312 -3.773438 2.75 -3.703125 C 2.675781 -3.640625 2.585938 -3.609375 2.484375 -3.609375 Z M 1.78125 -3.609375 "/></g></g></g><g fill="#fdf0d5" fill-opacity="1"><g transform="translate(197.537326, 235.161633)"><g><path d="M 4.453125 -2.359375 C 4.453125 -2.265625 4.410156 -2.179688 4.328125 -2.109375 C 4.253906 -2.035156 4.160156 -2 4.046875 -2 L 1.09375 -2 C 1.132812 -1.59375 1.289062 -1.265625 1.5625 -1.015625 C 1.832031 -0.773438 2.164062 -0.65625 2.5625 -0.65625 C 2.832031 -0.65625 3.050781 -0.691406 3.21875 -0.765625 C 3.382812 -0.847656 3.53125 -0.953125 3.65625 -1.078125 C 3.738281 -1.128906 3.820312 -1.15625 3.90625 -1.15625 C 4 -1.15625 4.078125 -1.117188 4.140625 -1.046875 C 4.203125 -0.984375 4.234375 -0.90625 4.234375 -0.8125 C 4.234375 -0.695312 4.175781 -0.59375 4.0625 -0.5 C 3.90625 -0.332031 3.691406 -0.191406 3.421875 -0.078125 C 3.148438 0.0234375 2.875 0.078125 2.59375 0.078125 C 2.144531 0.078125 1.75 -0.015625 1.40625 -0.203125 C 1.0625 -0.390625 0.796875 -0.65625 0.609375 -1 C 0.421875 -1.34375 0.328125 -1.726562 0.328125 -2.15625 C 0.328125 -2.625 0.421875 -3.035156 0.609375 -3.390625 C 0.804688 -3.742188 1.0625 -4.015625 1.375 -4.203125 C 1.695312 -4.398438 2.039062 -4.5 2.40625 -4.5 C 2.757812 -4.5 3.09375 -4.40625 3.40625 -4.21875 C 3.71875 -4.03125 3.96875 -3.773438 4.15625 -3.453125 C 4.351562 -3.128906 4.453125 -2.765625 4.453125 -2.359375 Z M 2.40625 -3.765625 C 2.09375 -3.765625 1.816406 -3.675781 1.578125 -3.5 C 1.347656 -3.320312 1.195312 -3.046875 1.125 -2.671875 L 3.609375 -2.671875 L 3.609375 -2.75 C 3.578125 -3.039062 3.441406 -3.28125 3.203125 -3.46875 C 2.972656 -3.664062 2.707031 -3.765625 2.40625 -3.765625 Z M 2.40625 -3.765625 "/></g></g></g><g fill="#fdf0d5" fill-opacity="1"><g transform="translate(207.796375, 235.161633)"><g><path d="M 2.78125 -4.5 C 2.925781 -4.5 3.050781 -4.457031 3.15625 -4.375 C 3.269531 -4.300781 3.328125 -4.210938 3.328125 -4.109375 C 3.328125 -3.972656 3.289062 -3.867188 3.21875 -3.796875 C 3.144531 -3.722656 3.0625 -3.6875 2.96875 -3.6875 C 2.914062 -3.6875 2.835938 -3.707031 2.734375 -3.75 C 2.617188 -3.78125 2.523438 -3.796875 2.453125 -3.796875 C 2.285156 -3.796875 2.117188 -3.734375 1.953125 -3.609375 C 1.785156 -3.492188 1.648438 -3.332031 1.546875 -3.125 C 1.441406 -2.914062 1.390625 -2.679688 1.390625 -2.421875 L 1.390625 -0.40625 C 1.390625 -0.289062 1.351562 -0.191406 1.28125 -0.109375 C 1.207031 -0.0351562 1.109375 0 0.984375 0 C 0.867188 0 0.773438 -0.0351562 0.703125 -0.109375 C 0.628906 -0.179688 0.59375 -0.28125 0.59375 -0.40625 L 0.59375 -4 C 0.59375 -4.101562 0.628906 -4.191406 0.703125 -4.265625 C 0.785156 -4.347656 0.878906 -4.390625 0.984375 -4.390625 C 1.109375 -4.390625 1.207031 -4.347656 1.28125 -4.265625 C 1.351562 -4.191406 1.390625 -4.101562 1.390625 -4 L 1.390625 -3.5625 C 1.515625 -3.84375 1.695312 -4.066406 1.9375 -4.234375 C 2.1875 -4.398438 2.46875 -4.488281 2.78125 -4.5 Z M 2.78125 -4.5 "/></g></g></g></svg>