<svg xmlns="http://www.w3.org/2000/svg" xmlns:xlink="http://www.w3.org/1999/xlink" width="500" zoomAndPan="magnify" viewBox="0 0 375 374.999991" height="500" preserveAspectRatio="xMidYMid meet" version="1.0"><defs><clipPath id="612798acec"><path d="M 187.5 0 C 83.945312 0 0 83.945312 0 187.5 C 0 291.054688 83.945312 375 187.5 375 C 291.054688 375 375 291.054688 375 187.5 C 375 83.945312 291.054688 0 187.5 0 Z M 187.5 0 " clip-rule="nonzero"/></clipPath><radialGradient gradientTransform="matrix(1, 0, 0, 1, 0.0000045, -0)" gradientUnits="userSpaceOnUse" r="265.164544" cx="187.499995" id="09e442af5c" cy="187.499995" fx="187.499995" fy="187.499995"><stop stop-opacity="1" stop-color="rgb(52.377319%, 62.217712%, 66.130066%)" offset="0"/><stop stop-opacity="1" stop-color="rgb(52.163696%, 61.90033%, 65.835571%)" offset="0.015625"/><stop stop-opacity="1" stop-color="rgb(51.980591%, 61.628723%, 65.582275%)" offset="0.0273438"/><stop stop-opacity="1" stop-color="rgb(51.799011%, 61.357117%, 65.328979%)" offset="0.0390625"/><stop stop-opacity="1" stop-color="rgb(51.615906%, 61.08551%, 65.075684%)" offset="0.0507812"/><stop stop-opacity="1" stop-color="rgb(51.4328%, 60.813904%, 64.822388%)" offset="0.0625"/><stop stop-opacity="1" stop-color="rgb(51.249695%, 60.540771%, 64.569092%)" offset="0.0742188"/><stop stop-opacity="1" stop-color="rgb(51.066589%, 60.269165%, 64.315796%)" offset="0.0859375"/><stop stop-opacity="1" stop-color="rgb(50.88501%, 59.997559%, 64.0625%)" offset="0.0976562"/><stop stop-opacity="1" stop-color="rgb(50.701904%, 59.725952%, 63.81073%)" offset="0.109375"/><stop stop-opacity="1" stop-color="rgb(50.518799%, 59.454346%, 63.557434%)" offset="0.121094"/><stop stop-opacity="1" stop-color="rgb(50.335693%, 59.181213%, 63.304138%)" offset="0.132812"/><stop stop-opacity="1" stop-color="rgb(50.152588%, 58.909607%, 63.050842%)" offset="0.144531"/><stop stop-opacity="1" stop-color="rgb(49.969482%, 58.638%, 62.797546%)" offset="0.15625"/><stop stop-opacity="1" stop-color="rgb(49.787903%, 58.366394%, 62.54425%)" offset="0.167969"/><stop stop-opacity="1" stop-color="rgb(49.604797%, 58.094788%, 62.290955%)" offset="0.179688"/><stop stop-opacity="1" stop-color="rgb(49.421692%, 57.823181%, 62.037659%)" offset="0.191406"/><stop stop-opacity="1" stop-color="rgb(49.238586%, 57.550049%, 61.784363%)" offset="0.203125"/><stop stop-opacity="1" stop-color="rgb(49.055481%, 57.278442%, 61.532593%)" offset="0.214844"/><stop stop-opacity="1" stop-color="rgb(48.873901%, 57.006836%, 61.279297%)" offset="0.226562"/><stop stop-opacity="1" stop-color="rgb(48.690796%, 56.735229%, 61.026001%)" offset="0.238281"/><stop stop-opacity="1" stop-color="rgb(48.50769%, 56.463623%, 60.772705%)" offset="0.25"/><stop stop-opacity="1" stop-color="rgb(48.355103%, 56.236267%, 60.560608%)" offset="0.261719"/><stop stop-opacity="1" stop-color="rgb(48.233032%, 56.054688%, 60.392761%)" offset="0.269531"/><stop stop-opacity="1" stop-color="rgb(48.110962%, 55.873108%, 60.223389%)" offset="0.277344"/><stop stop-opacity="1" stop-color="rgb(47.990417%, 55.693054%, 60.055542%)" offset="0.285156"/><stop stop-opacity="1" stop-color="rgb(47.868347%, 55.511475%, 59.886169%)" offset="0.292969"/><stop stop-opacity="1" stop-color="rgb(47.746277%, 55.329895%, 59.716797%)" offset="0.300781"/><stop stop-opacity="1" stop-color="rgb(47.624207%, 55.148315%, 59.54895%)" offset="0.308594"/><stop stop-opacity="1" stop-color="rgb(47.502136%, 54.966736%, 59.379578%)" offset="0.316406"/><stop stop-opacity="1" stop-color="rgb(47.380066%, 54.786682%, 59.211731%)" offset="0.324219"/><stop stop-opacity="1" stop-color="rgb(47.257996%, 54.605103%, 59.042358%)" offset="0.332031"/><stop stop-opacity="1" stop-color="rgb(47.135925%, 54.423523%, 58.874512%)" offset="0.339844"/><stop stop-opacity="1" stop-color="rgb(47.015381%, 54.241943%, 58.705139%)" offset="0.347656"/><stop stop-opacity="1" stop-color="rgb(46.893311%, 54.06189%, 58.535767%)" offset="0.355469"/><stop stop-opacity="1" stop-color="rgb(46.77124%, 53.88031%, 58.36792%)" offset="0.363281"/><stop stop-opacity="1" stop-color="rgb(46.64917%, 53.69873%, 58.198547%)" offset="0.371094"/><stop stop-opacity="1" stop-color="rgb(46.466064%, 53.427124%, 57.945251%)" offset="0.378906"/><stop stop-opacity="1" stop-color="rgb(46.221924%, 53.063965%, 57.608032%)" offset="0.394531"/><stop stop-opacity="1" stop-color="rgb(45.979309%, 52.702332%, 57.270813%)" offset="0.410156"/><stop stop-opacity="1" stop-color="rgb(45.735168%, 52.339172%, 56.933594%)" offset="0.425781"/><stop stop-opacity="1" stop-color="rgb(45.491028%, 51.977539%, 56.594849%)" offset="0.441406"/><stop stop-opacity="1" stop-color="rgb(45.246887%, 51.61438%, 56.257629%)" offset="0.457031"/><stop stop-opacity="1" stop-color="rgb(45.004272%, 51.252747%, 55.92041%)" offset="0.472656"/><stop stop-opacity="1" stop-color="rgb(44.760132%, 50.889587%, 55.583191%)" offset="0.488281"/><stop stop-opacity="1" stop-color="rgb(44.546509%, 50.572205%, 55.288696%)" offset="0.503906"/><stop stop-opacity="1" stop-color="rgb(44.363403%, 50.300598%, 55.0354%)" offset="0.515625"/><stop stop-opacity="1" stop-color="rgb(44.181824%, 50.028992%, 54.782104%)" offset="0.527344"/><stop stop-opacity="1" stop-color="rgb(43.998718%, 49.757385%, 54.528809%)" offset="0.539062"/><stop stop-opacity="1" stop-color="rgb(43.815613%, 49.485779%, 54.275513%)" offset="0.550781"/><stop stop-opacity="1" stop-color="rgb(43.632507%, 49.212646%, 54.022217%)" offset="0.5625"/><stop stop-opacity="1" stop-color="rgb(43.449402%, 48.94104%, 53.768921%)" offset="0.574219"/><stop stop-opacity="1" stop-color="rgb(43.267822%, 48.669434%, 53.515625%)" offset="0.585938"/><stop stop-opacity="1" stop-color="rgb(43.084717%, 48.397827%, 53.263855%)" offset="0.597656"/><stop stop-opacity="1" stop-color="rgb(42.901611%, 48.126221%, 53.010559%)" offset="0.609375"/><stop stop-opacity="1" stop-color="rgb(42.718506%, 47.853088%, 52.757263%)" offset="0.621094"/><stop stop-opacity="1" stop-color="rgb(42.565918%, 47.627258%, 52.545166%)" offset="0.632812"/><stop stop-opacity="1" stop-color="rgb(42.443848%, 47.445679%, 52.377319%)" offset="0.640625"/><stop stop-opacity="1" stop-color="rgb(42.323303%, 47.264099%, 52.207947%)" offset="0.648438"/><stop stop-opacity="1" stop-color="rgb(42.201233%, 47.08252%, 52.0401%)" offset="0.65625"/><stop stop-opacity="1" stop-color="rgb(42.079163%, 46.902466%, 51.870728%)" offset="0.664062"/><stop stop-opacity="1" stop-color="rgb(41.957092%, 46.720886%, 51.701355%)" offset="0.671875"/><stop stop-opacity="1" stop-color="rgb(41.835022%, 46.539307%, 51.533508%)" offset="0.679688"/><stop stop-opacity="1" stop-color="rgb(41.712952%, 46.357727%, 51.364136%)" offset="0.6875"/><stop stop-opacity="1" stop-color="rgb(41.529846%, 46.086121%, 51.11084%)" offset="0.695312"/><stop stop-opacity="1" stop-color="rgb(41.287231%, 45.724487%, 50.773621%)" offset="0.710938"/><stop stop-opacity="1" stop-color="rgb(41.043091%, 45.361328%, 50.436401%)" offset="0.726562"/><stop stop-opacity="1" stop-color="rgb(40.79895%, 44.998169%, 50.099182%)" offset="0.742188"/><stop stop-opacity="1" stop-color="rgb(40.585327%, 44.682312%, 49.803162%)" offset="0.757812"/><stop stop-opacity="1" stop-color="rgb(40.403748%, 44.410706%, 49.551392%)" offset="0.769531"/><stop stop-opacity="1" stop-color="rgb(40.220642%, 44.137573%, 49.298096%)" offset="0.78125"/><stop stop-opacity="1" stop-color="rgb(40.037537%, 43.865967%, 49.0448%)" offset="0.792969"/><stop stop-opacity="1" stop-color="rgb(39.854431%, 43.59436%, 48.791504%)" offset="0.804688"/><stop stop-opacity="1" stop-color="rgb(39.701843%, 43.367004%, 48.579407%)" offset="0.816406"/><stop stop-opacity="1" stop-color="rgb(39.579773%, 43.185425%, 48.41156%)" offset="0.824219"/><stop stop-opacity="1" stop-color="rgb(39.459229%, 43.005371%, 48.242188%)" offset="0.832031"/><stop stop-opacity="1" stop-color="rgb(39.337158%, 42.823792%, 48.074341%)" offset="0.839844"/><stop stop-opacity="1" stop-color="rgb(39.154053%, 42.552185%, 47.821045%)" offset="0.847656"/><stop stop-opacity="1" stop-color="rgb(38.909912%, 42.189026%, 47.4823%)" offset="0.863281"/><stop stop-opacity="1" stop-color="rgb(38.696289%, 41.873169%, 47.187805%)" offset="0.878906"/><stop stop-opacity="1" stop-color="rgb(38.513184%, 41.600037%, 46.934509%)" offset="0.890625"/><stop stop-opacity="1" stop-color="rgb(38.331604%, 41.32843%, 46.681213%)" offset="0.902344"/><stop stop-opacity="1" stop-color="rgb(38.179016%, 41.101074%, 46.470642%)" offset="0.914062"/><stop stop-opacity="1" stop-color="rgb(38.056946%, 40.921021%, 46.30127%)" offset="0.921875"/><stop stop-opacity="1" stop-color="rgb(37.87384%, 40.649414%, 46.047974%)" offset="0.929688"/><stop stop-opacity="1" stop-color="rgb(37.660217%, 40.332031%, 45.753479%)" offset="0.945312"/><stop stop-opacity="1" stop-color="rgb(37.509155%, 40.104675%, 45.542908%)" offset="0.957031"/><stop stop-opacity="1" stop-color="rgb(37.32605%, 39.833069%, 45.289612%)" offset="0.964844"/><stop stop-opacity="1" stop-color="rgb(37.142944%, 39.561462%, 45.036316%)" offset="0.980469"/><stop stop-opacity="1" stop-color="rgb(36.990356%, 39.335632%, 44.825745%)" offset="0.988281"/><stop stop-opacity="1" stop-color="rgb(36.898804%, 39.199829%, 44.699097%)" offset="1"/></radialGradient><clipPath id="59922e2a10"><path d="M 140.824219 54 L 233.824219 54 L 233.824219 320.847656 L 140.824219 320.847656 Z M 140.824219 54 " clip-rule="nonzero"/></clipPath></defs><g clip-path="url(#612798acec)"><rect x="-37.5" fill="url(#09e442af5c)" width="450" y="-37.499999" height="449.999989"/></g><g clip-path="url(#59922e2a10)"><path fill="#ffa69e" d="M 178.03125 204.695312 L 144.695312 238.03125 C 142.183594 240.542969 140.773438 243.949219 140.773438 247.5 C 140.773438 251.050781 142.183594 254.457031 144.695312 256.964844 C 147.207031 259.476562 150.613281 260.886719 154.164062 260.886719 C 155.921875 260.886719 157.660156 260.542969 159.285156 259.867188 C 160.910156 259.195312 162.386719 258.210938 163.628906 256.964844 L 174.164062 246.300781 L 174.164062 307.503906 C 174.164062 311.039062 175.570312 314.429688 178.070312 316.933594 C 180.570312 319.433594 183.960938 320.835938 187.5 320.835938 C 191.035156 320.835938 194.425781 319.433594 196.925781 316.933594 C 199.425781 314.429688 200.832031 311.039062 200.832031 307.503906 L 200.832031 246.300781 L 211.367188 256.964844 C 212.605469 258.214844 214.082031 259.207031 215.707031 259.886719 C 217.332031 260.5625 219.074219 260.910156 220.835938 260.910156 C 222.59375 260.910156 224.335938 260.5625 225.960938 259.886719 C 227.585938 259.207031 229.0625 258.214844 230.300781 256.964844 C 231.550781 255.726562 232.542969 254.253906 233.21875 252.628906 C 233.898438 251.003906 234.246094 249.257812 234.246094 247.5 C 234.246094 245.738281 233.898438 243.996094 233.21875 242.371094 C 232.542969 240.746094 231.550781 239.269531 230.300781 238.03125 L 196.964844 204.695312 C 195.699219 203.484375 194.203125 202.53125 192.566406 201.894531 C 189.320312 200.5625 185.675781 200.5625 182.433594 201.894531 C 180.792969 202.53125 179.300781 203.484375 178.03125 204.695312 Z M 174.164062 67.488281 L 174.164062 128.691406 L 163.628906 118.023438 C 162.386719 116.78125 160.910156 115.792969 159.285156 115.121094 C 157.660156 114.449219 155.921875 114.101562 154.164062 114.101562 C 152.40625 114.101562 150.664062 114.449219 149.039062 115.121094 C 147.414062 115.792969 145.9375 116.78125 144.695312 118.023438 C 143.453125 119.265625 142.464844 120.742188 141.792969 122.367188 C 141.121094 123.992188 140.773438 125.730469 140.773438 127.492188 C 140.773438 129.25 141.121094 130.988281 141.792969 132.613281 C 142.464844 134.238281 143.453125 135.714844 144.695312 136.957031 L 178.03125 170.292969 C 179.300781 171.507812 180.792969 172.460938 182.433594 173.09375 C 185.675781 174.425781 189.320312 174.425781 192.566406 173.09375 C 194.203125 172.460938 195.699219 171.507812 196.964844 170.292969 L 230.300781 136.957031 C 231.550781 135.71875 232.542969 134.242188 233.21875 132.617188 C 233.898438 130.992188 234.246094 129.25 234.246094 127.492188 C 234.246094 125.730469 233.898438 123.988281 233.21875 122.363281 C 232.542969 120.738281 231.550781 119.261719 230.300781 118.023438 C 229.0625 116.773438 227.585938 115.78125 225.960938 115.105469 C 224.335938 114.425781 222.59375 114.078125 220.835938 114.078125 C 219.074219 114.078125 217.332031 114.425781 215.707031 115.105469 C 214.082031 115.78125 212.605469 116.773438 211.367188 118.023438 L 200.832031 128.691406 L 200.832031 67.488281 C 200.832031 63.949219 199.425781 60.558594 196.925781 58.058594 C 194.425781 55.558594 191.035156 54.152344 187.5 54.152344 C 183.960938 54.152344 180.570312 55.558594 178.070312 58.058594 C 175.570312 60.558594 174.164062 63.949219 174.164062 67.488281 Z M 174.164062 67.488281 " fill-opacity="1" fill-rule="nonzero"/></g></svg>