<?xml version="1.0" encoding="utf-8"?>

<!-- Uploaded to: SVG Repo, www.svgrepo.com, Generator: SVG Repo Mixer Tools -->
<svg version="1.1" id="Icons" xmlns="http://www.w3.org/2000/svg" xmlns:xlink="http://www.w3.org/1999/xlink" 
	 viewBox="0 0 32 32" xml:space="preserve">
<style type="text/css">
	.st0{fill:none;stroke:#000000;stroke-width:2;stroke-linecap:round;stroke-linejoin:round;stroke-miterlimit:10;}
</style>
<path d="M21,7c0-2.8-2.2-5-5-5s-5,2.2-5,5c0,1.6,0.8,3.1,2,4v10c0,0.3,0.1,0.5,0.3,0.7c0.7,0.7,1.7,1.1,2.7,1.1s2-0.4,2.7-1.1
	c0.2-0.2,0.3-0.4,0.3-0.7V11C20.2,10.1,21,8.6,21,7z"/>
<path d="M29.8,23.4l-3.4-4.2c0,0,0,0,0,0C25.8,18.4,25,18,24,18h-3v3c0,0.8-0.3,1.6-0.9,2.1c-1.1,1.1-2.6,1.7-4.1,1.7
	s-3-0.6-4.1-1.7C11.3,22.6,11,21.8,11,21v-3H8c-0.9,0-1.8,0.4-2.3,1.1l-3.4,4.2C2.1,23.6,2,23.8,2,24v3c0,1.7,1.3,3,3,3h22
	c1.7,0,3-1.3,3-3v-3C30,23.8,29.9,23.6,29.8,23.4z"/>
</svg>