<?xml version="1.0" standalone="no"?>
<!DOCTYPE svg PUBLIC "-//W3C//DTD SVG 20010904//EN"
 "http://www.w3.org/TR/2001/REC-SVG-20010904/DTD/svg10.dtd">
<svg version="1.0" xmlns="http://www.w3.org/2000/svg"
 width="512.000000pt" height="512.000000pt" viewBox="0 0 512.000000 512.000000"
 preserveAspectRatio="xMidYMid meet">

<g transform="translate(0.000000,512.000000) scale(0.100000,-0.100000)"
fill="#000000" stroke="none">
<path d="M1052 3447 l-882 -882 0 -358 0 -357 880 0 880 0 0 -440 0 -440 440
0 440 0 0 795 0 795 -875 0 c-481 0 -875 3 -875 8 0 4 392 399 870 877 479
478 870 873 870 877 0 5 -195 8 -433 8 l-432 0 -883 -883z"/>
<path d="M3190 3888 l0 -443 435 435 c239 239 435 438 435 442 0 5 -196 8
-435 8 l-435 0 0 -442z"/>
<path d="M4070 3887 l0 -442 -440 -440 -440 -440 0 -437 0 -438 440 0 440 0 0
438 0 437 440 440 440 440 0 442 0 443 -440 0 -440 0 0 -443z"/>
<path d="M4510 2125 l-435 -435 438 0 437 0 0 435 c0 239 -1 435 -3 435 -1 0
-198 -196 -437 -435z"/>
</g>
</svg>
